HIERARCHY
ROOT Hips
{
  OFFSET 54.9184 93.7137 16.046
  CHANNELS 6 Xposition Yposition Zposition Zrotation Xrotation Yrotation
  JOINT spine
  {
    OFFSET 0 7.4756 0.429885
    CHANNELS 3 Zrotation Xrotation Yrotation
    JOINT spine1
    {
      OFFSET 0 9.92301 0
      CHANNELS 3 Zrotation Xrotation Yrotation
      JOINT spine2
      {
        OFFSET 0 9.50804 0
        CHANNELS 3 Zrotation Xrotation Yrotation
        JOINT Neck
        {
          OFFSET 0 24.4111 1.16384
          CHANNELS 3 Zrotation Xrotation Yrotation
          JOINT Head
          {
            OFFSET 0 7.37523 0
            CHANNELS 3 Zrotation Xrotation Yrotation
            End Site
            {
              OFFSET 0 17.8522 -5.88741
            }
          }
        }
        JOINT RightShoulder
        {
          OFFSET -4.00356 10.2679 -0.557468
          CHANNELS 3 Zrotation Xrotation Yrotation
          JOINT RightArm
          {
            OFFSET 0 13.4673 0
            CHANNELS 3 Zrotation Xrotation Yrotation
            JOINT RightArmRoll
            {
              OFFSET 0 6.79858 0
              CHANNELS 3 Zrotation Xrotation Yrotation
              JOINT RightForeArm
              {
                OFFSET 0 19.8018 0
                CHANNELS 3 Zrotation Xrotation Yrotation
                JOINT RightForeArmRoll
                {
                  OFFSET 0 7.62905 0
                  CHANNELS 3 Zrotation Xrotation Yrotation
                  JOINT RightHand
                  {
                    OFFSET 0 15.3098 0
                    CHANNELS 3 Zrotation Xrotation Yrotation
                    End Site
                    {
                      OFFSET 0 0 0
                    }
                  }
                }
              }
            }
          }
        }
        JOINT LeftShoulder
        {
          OFFSET 4.00356 10.2679 -0.557468
          CHANNELS 3 Zrotation Xrotation Yrotation
          JOINT LeftArm
          {
            OFFSET 0 13.4673 0
            CHANNELS 3 Zrotation Xrotation Yrotation
            JOINT LeftArmRoll
            {
              OFFSET 0 6.79858 0
              CHANNELS 3 Zrotation Xrotation Yrotation
              JOINT LeftForeArm
              {
                OFFSET 0 19.8018 0
                CHANNELS 3 Zrotation Xrotation Yrotation
                JOINT LeftForeArmRoll
                {
                  OFFSET 0 7.62905 0
                  CHANNELS 3 Zrotation Xrotation Yrotation
                  JOINT LeftHand
                  {
                    OFFSET 0 15.3098 0
                    CHANNELS 3 Zrotation Xrotation Yrotation
                    End Site
                    {
                      OFFSET 0 0 0
                    }
                  }
                }
              }
            }
          }
        }
      }
    }
  }
  JOINT RightUpLeg
  {
    OFFSET -6.62609 -1.21505 -1.01927
    CHANNELS 3 Zrotation Xrotation Yrotation
    JOINT RightUpLegRoll
    {
      OFFSET 0 17.9517 0
      CHANNELS 3 Zrotation Xrotation Yrotation
      JOINT RightLeg
      {
        OFFSET 0 -22.2304 0
        CHANNELS 3 Zrotation Xrotation Yrotation
        JOINT RightLegRoll
        {
          OFFSET 0 22.3032 0
          CHANNELS 3 Zrotation Xrotation Yrotation
          JOINT RightFoot
          {
            OFFSET 0 18.5636 0
            CHANNELS 3 Zrotation Xrotation Yrotation
            JOINT RightToeBase
            {
              OFFSET 0 15.5183 0
              CHANNELS 3 Zrotation Xrotation Yrotation
              End Site
              {
                OFFSET 0.00657761 7.51539 -0.866263
              }
            }
          }
        }
      }
    }
  }
  JOINT LeftUpLeg
  {
    OFFSET 6.62609 -1.21505 -1.01927
    CHANNELS 3 Zrotation Xrotation Yrotation
    JOINT LeftUpLegRoll
    {
      OFFSET 0 17.9518 0
      CHANNELS 3 Zrotation Xrotation Yrotation
      JOINT LeftLeg
      {
        OFFSET 0 22.2303 0
        CHANNELS 3 Zrotation Xrotation Yrotation
        JOINT LeftLegRoll
        {
          OFFSET 0 22.5093 0
          CHANNELS 3 Zrotation Xrotation Yrotation
          JOINT LeftFoot
          {
            OFFSET 0 18.3575 0
            CHANNELS 3 Zrotation Xrotation Yrotation
            JOINT LeftToeBase
            {
              OFFSET 0 15.5183 0
              CHANNELS 3 Zrotation Xrotation Yrotation
              End Site
              {
                OFFSET -0.029478 7.51539 -0.866263
              }
            }
          }
        }
      }
    }
  }
}
MOTION
Frames: 6
Frame Time: 0.00208333
53.9199 110.621 20.2179 -5.63823 -1.12256 6.04522 0.380872 -2.12148 -0.0100951 0.760563 -0.240417 -0.0556501 0.761435 1.40457 -0.0683916 27.3892 0.0693706 -4.92518 -18.894 7.54571 -1.27324 52.4486 -10.6015 -6.61243 45.7955 -3.05253 35.8679 8.30939e-006 -6.37623e-006 -9.77765e-006 5.58697 44.482 -4.93475 3.34668e-005 -8.30429e-007 -3.00794 8.02976 -4.95141 0.697659 -31.7227 -7.96019 3.9989 -79.9749 40.7163 -34.0274 -1.42061e-005 -1.87681e-007 1.34823e-005 2.3226 49.7029 -1.41174 -9.86025e-006 -2.0165e-006 3.00337 -8.03027 -4.95135 -0.697645 -179.564 -1.09205 -1.81163 180 7.01533e-015 178.865 179.549 8.29631 179.596 1.6041e-006 -1.61639e-006 0.140405 -19.2257 68.6639 20.0884 8.13649 25.2327 -3.48774 -166.665 1.76496 -3.99008 4.54188e-006 -4.6773e-006 -1.12363 -2.33939 -6.68716 0.06598 -1.61634e-007 2.66825e-006 -0.0460302 17.7014 66.8204 -18.6077 -8.13649 25.2327 3.48774 
53.9208 110.673 20.206 -5.66689 -1.15782 6.03311 0.390327 -2.10033 -0.00596364 0.779589 -0.198092 -0.0484226 0.78039 1.44689 -0.0614817 27.3184 -0.133365 -4.90801 -18.881 7.74255 -1.28273 52.8485 -10.6431 -6.63971 46.1044 -3.32174 35.8256 8.30939e-006 -6.37623e-006 -9.77765e-006 5.58518 44.545 -4.95288 3.34668e-005 -8.30429e-007 -3.00794 8.02976 -4.95141 0.697659 -32.1079 -7.84704 3.9009 -80.1963 39.9917 -33.7712 -1.42061e-005 -1.87681e-007 1.34823e-005 2.22632 49.5568 -1.34122 -9.86025e-006 -2.0165e-006 3.00337 -8.03027 -4.95135 -0.697645 -179.454 -1.00834 -1.83445 180 7.01533e-015 178.863 179.507 8.56075 179.593 1.6041e-006 -1.61639e-006 0.147219 -19.2633 68.7073 20.1273 8.13649 25.2327 -3.48774 -166.752 1.77878 -3.95844 4.54188e-006 -4.6773e-006 -1.12465 -2.34364 -6.83292 0.06851 -1.61634e-007 2.66825e-006 -0.0483255 17.7011 66.8164 -18.6049 -8.13649 25.2327 3.48774 
53.9396 110.713 20.1961 -5.69456 -1.19516 6.02152 0.39995 -2.07887 -0.00162641 0.798952 -0.155155 -0.0408039 0.799677 1.48982 -0.054186 27.2377 -0.336009 -4.89114 -18.8604 7.94438 -1.29307 53.2341 -10.6873 -6.66881 46.4326 -3.58601 35.7872 8.30939e-006 -6.37623e-006 -9.77765e-006 5.58144 44.607 -4.96992 3.34668e-005 -8.30429e-007 -3.00794 8.02976 -4.95141 0.697659 -32.482 -7.73341 3.8037 -80.4266 39.2647 -33.515 -1.42061e-005 -1.87681e-007 1.34823e-005 2.13237 49.4011 -1.27171 -9.86025e-006 -2.0165e-006 3.00337 -8.03027 -4.95135 -0.697645 -179.346 -0.925697 -1.85529 180 7.01532e-015 178.86 179.464 8.82725 179.59 1.6041e-006 -1.61639e-006 0.154084 -19.3018 68.7516 20.1674 8.13649 25.2327 -3.48774 -166.84 1.79327 -3.92531 4.54188e-006 -4.6773e-006 -1.12566 -2.34583 -6.98489 0.0712574 -1.61634e-007 2.66825e-006 -0.0507149 17.7014 66.8133 -18.6029 -8.13649 25.2327 3.48774 
53.9409 110.764 20.1931 -5.72123 -1.23409 6.0104 0.4096 -2.05731 0.00280279 0.818367 -0.112003 -0.0330065 0.819015 1.53297 -0.0467125 27.1489 -0.535913 -4.8749 -18.8323 8.14852 -1.30416 53.6059 -10.7332 -6.69914 46.7798 -3.84577 35.7518 8.30939e-006 -6.37623e-006 -9.77765e-006 5.57595 44.6669 -4.98584 3.34668e-005 -8.30429e-007 -3.00794 8.02976 -4.95141 0.697659 -32.8463 -7.61953 3.70742 -80.664 38.5371 -33.2612 -1.42061e-005 -1.87681e-007 1.34823e-005 2.04091 49.2378 -1.20336 -9.86025e-006 -2.0165e-006 3.00337 -8.03027 -4.95135 -0.697645 -179.241 -0.843886 -1.87439 180 7.01531e-015 178.857 179.42 9.09475 179.587 1.6041e-006 -1.61639e-006 0.16095 -19.3409 68.7966 20.2082 8.13649 25.2327 -3.48774 -166.928 1.8084 -3.89067 4.54188e-006 -4.6773e-006 -1.12667 -2.34593 -7.142 0.0742249 -1.61634e-007 2.66825e-006 -0.0531702 17.702 66.8108 -18.6013 -8.13649 25.2327 3.48774 
53.9571 110.796 20.1967 -5.7469 -1.27409 5.9997 0.419138 -2.03583 0.00721018 0.837552 -0.0690331 -0.0252432 0.838123 1.57594 -0.039269 27.0535 -0.730427 -4.85961 -18.7968 8.35224 -1.31591 53.9644 -10.7798 -6.73009 47.1451 -4.10148 35.7188 8.30939e-006 -6.37623e-006 -9.77765e-006 5.56892 44.7234 -5.00061 3.34668e-005 -8.30429e-007 -3.00794 8.02976 -4.95141 0.697659 -33.2019 -7.50563 3.6122 -80.9071 37.8103 -33.0122 -1.42061e-005 -1.87681e-007 1.34823e-005 1.95206 49.0691 -1.13631 -9.86025e-006 -2.0165e-006 3.00337 -8.03027 -4.95135 -0.697645 -179.138 -0.76267 -1.89197 180 7.01531e-015 178.855 179.376 9.36218 179.584 1.6041e-006 -1.61639e-006 0.167767 -19.3802 68.8416 20.2494 8.13649 25.2327 -3.48774 -167.018 1.82418 -3.8545 4.54188e-006 -4.6773e-006 -1.12768 -2.34395 -7.30316 0.0774153 -1.61634e-007 2.66825e-006 -0.0556627 17.7029 66.8086 -18.5999 -8.13649 25.2327 3.48774 
53.9601 110.84 20.1898 -5.77156 -1.31465 5.98937 0.428424 -2.01464 0.011482 0.856223 -0.0266422 -0.0177267 0.85672 1.61832 -0.0320636 26.9531 -0.916898 -4.8456 -18.7539 8.55285 -1.32821 54.3101 -10.8265 -6.76104 47.5282 -4.3536 35.6872 8.30939e-006 -6.37623e-006 -9.77765e-006 5.56058 44.7756 -5.01419 3.34668e-005 -8.30429e-007 -3.00794 8.02976 -4.95141 0.697659 -33.5501 -7.39193 3.51813 -81.1544 37.0861 -32.77 -1.42061e-005 -1.87681e-007 1.34823e-005 1.86592 48.897 -1.07069 -9.86025e-006 -2.0165e-006 3.00337 -8.03027 -4.95135 -0.697645 -179.036 -0.68181 -1.90827 180 7.0153e-015 178.852 179.33 9.6285 179.582 1.6041e-006 -1.61639e-006 0.174485 -19.4194 68.8864 20.2905 8.13649 25.2327 -3.48774 -167.109 1.84059 -3.81678 4.54188e-006 -4.6773e-006 -1.12871 -2.33988 -7.4673 0.0808315 -1.61634e-007 2.66825e-006 -0.0581642 17.7036 66.8066 -18.5985 -8.13649 25.2327 3.48774 
